Coordinates
version=1
nRows=18
nColumns=63
inDegrees=yes

Units are S.I. units (second, meters, Newtons, ...)
If the header above contains a line with 'inDegrees', this indicates whether rotational values are in degrees (yes) or radians (no).

endheader
time	pelvis_tilt	pelvis_list	pelvis_rotation	pelvis_tx	pelvis_ty	pelvis_tz	hip_flexion_r	hip_adduction_r	hip_rotation_r	knee_angle_r	knee_angle_r_beta	ankle_angle_r	subtalar_angle_r	mtp_angle_r	hip_flexion_l	hip_adduction_l	hip_rotation_l	knee_angle_l	knee_angle_l_beta	ankle_angle_l	subtalar_angle_l	mtp_angle_l	L5_S1_Flex_Ext	L5_S1_Lat_Bending	L5_S1_axial_rotation	L4_L5_Flex_Ext	L4_L5_Lat_Bending	L4_L5_axial_rotation	L3_L4_Flex_Ext	L3_L4_Lat_Bending	L3_L4_axial_rotation	L2_L3_Flex_Ext	L2_L3_Lat_Bending	L2_L3_axial_rotation	L1_L2_Flex_Ext	L1_L2_Lat_Bending	L1_L2_axial_rotation	L1_T12_Flex_Ext	L1_T12_Lat_Bending	L1_T12_axial_rotation	Abs_r3	Abs_r2	Abs_r1	Abs_t1	Abs_t2	neck_flexion	neck_bending	neck_rotation	arm_flex_r	arm_add_r	arm_rot_r	elbow_flex_r	pro_sup_r	wrist_flex_r	wrist_dev_r	arm_flex_l	arm_add_l	arm_rot_l	elbow_flex_l	pro_sup_l	wrist_flex_l	wrist_dev_l
4.033898	1.465665	-0.743486	90.480701	0.284860	0.969775	0.470492	2.160560	2.827799	12.286172	1.525071	0.026618	28.505184	-15.509710	0.000000	3.708586	-3.554344	16.411375	1.165375	0.020340	33.074602	-5.356644	0.000000	0.284318	0.176399	-1.780962	0.528008	0.234610	-1.892272	0.467107	0.428896	-1.892272	0.324948	0.428896	-1.558342	0.264018	0.359712	-1.447032	0.162460	0.273241	-1.335722	2.030859	1.995456	-9.905178	0.000000	0.000000	27.167023	2.533202	-0.882782	14.335115	-15.650242	77.707882	56.278047	2.400509	-7.296061	-4.234799	14.415198	-15.974947	64.673806	51.967799	66.726591	6.917776	-1.277974
4.050847	1.363149	-0.841070	90.448258	0.284591	0.969647	0.471073	2.397201	2.701823	12.327358	1.648120	0.028765	28.644472	-15.382331	0.000000	4.018171	-3.405575	15.090348	1.432793	0.025007	33.454975	-4.021422	0.000000	0.281068	0.166685	-1.780769	0.521972	0.221691	-1.892067	0.461767	0.405278	-1.892067	0.321233	0.405278	-1.558173	0.261000	0.339904	-1.446875	0.160602	0.258195	-1.335577	2.007642	1.885576	-9.904102	0.000000	0.000000	26.876555	2.509776	-0.162587	14.719284	-15.687713	78.150475	56.226331	2.369088	-7.420459	-3.981084	13.577064	-15.697105	62.534874	51.837518	68.353139	7.069283	-0.824176
4.067797	1.282977	-0.933173	90.419339	0.284331	0.969572	0.471687	2.616950	2.598511	12.452889	1.744981	0.030456	28.723966	-15.353255	0.000000	4.341325	-3.287416	13.682167	1.758227	0.030687	33.832020	-2.586791	0.000000	0.275726	0.158566	-1.779099	0.512051	0.210893	-1.890292	0.452990	0.385538	-1.890292	0.315127	0.385538	-1.556711	0.256039	0.323348	-1.445518	0.157550	0.245619	-1.334324	1.969484	1.793731	-9.894813	0.000000	0.000000	26.462365	2.395735	0.349452	15.087211	-15.720893	78.534921	56.166729	2.350085	-7.518900	-3.674800	12.833535	-15.441475	60.607519	51.742277	69.781890	7.192258	-0.399172
4.084746	1.225217	-1.027001	90.396938	0.284063	0.969536	0.472357	2.833399	2.515587	12.494578	1.830666	0.031951	28.806412	-15.209299	0.000000	4.682192	-3.200353	12.230979	2.130993	0.037193	34.192539	-1.091986	0.000000	0.270014	0.152308	-1.775065	0.501443	0.202570	-1.886007	0.443606	0.370323	-1.886007	0.308599	0.370323	-1.553182	0.250735	0.310587	-1.442240	0.154286	0.235926	-1.331299	1.928685	1.722943	-9.872379	0.000000	0.000000	25.945292	2.158746	0.631881	15.469711	-15.750612	78.949529	56.089863	2.320594	-7.539512	-3.444762	12.257758	-15.212058	59.083406	51.653013	70.810468	7.274356	-0.145763
4.101695	1.192803	-1.118051	90.396059	0.283767	0.969533	0.473067	3.032394	2.456388	12.510224	1.893724	0.033052	28.851777	-15.074733	0.000000	5.026382	-3.143326	10.886195	2.524558	0.044062	34.520712	0.321427	0.000000	0.263791	0.148084	-1.770069	0.489886	0.196952	-1.880699	0.433382	0.360051	-1.880699	0.301487	0.360051	-1.548811	0.244956	0.301973	-1.438181	0.150730	0.229382	-1.327552	1.884232	1.675155	-9.844595	0.000000	0.000000	25.368693	1.846649	0.749283	15.836090	-15.767820	79.329320	55.991436	2.280024	-7.461453	-3.293952	11.842668	-15.009262	57.927080	51.591212	71.461399	7.322451	0.032701
4.118644	1.178193	-1.202895	90.412899	0.283455	0.969560	0.473813	3.202097	2.415153	12.604090	1.920463	0.033518	28.814311	-15.108561	0.000000	5.363872	-3.108803	9.689262	2.924086	0.051035	34.817281	1.603874	0.000000	0.257089	0.144804	-1.763340	0.477441	0.192589	-1.873549	0.422372	0.352076	-1.873549	0.293827	0.352076	-1.542922	0.238733	0.295284	-1.432714	0.146901	0.224301	-1.322505	1.836364	1.638051	-9.807168	0.000000	0.000000	24.763561	1.466449	0.734529	16.173412	-15.762307	79.643795	55.866697	2.220453	-7.280338	-3.211778	11.576783	-14.836780	57.108852	51.560634	71.721788	7.326751	0.170079
4.135593	1.173213	-1.289936	90.466080	0.283119	0.969601	0.474596	3.363290	2.380212	12.507442	1.941241	0.033881	28.808445	-14.958512	0.000000	5.702230	-3.086329	8.676608	3.317244	0.057897	35.080003	2.734511	0.000000	0.251584	0.141275	-1.754951	0.467217	0.187896	-1.864635	0.413328	0.343496	-1.864635	0.287536	0.343496	-1.535582	0.233621	0.288088	-1.425897	0.143755	0.218835	-1.316213	1.797042	1.598132	-9.760510	0.000000	0.000000	24.142964	1.005615	0.592299	16.448829	-15.735263	79.824699	55.733464	2.132791	-7.063213	-3.169173	11.482966	-14.705991	56.706741	51.526404	71.593137	7.233030	0.126927
4.152542	1.173756	-1.378391	90.528314	0.282801	0.969656	0.475409	3.509984	2.351480	12.380491	1.941695	0.033889	28.776025	-14.809212	0.000000	6.035224	-3.074700	7.627167	3.697406	0.064532	35.378129	3.988296	0.000000	0.246118	0.137315	-1.748731	0.457066	0.182629	-1.858026	0.404347	0.333868	-1.858026	0.281288	0.333868	-1.530139	0.228545	0.280013	-1.420844	0.140632	0.212701	-1.311548	1.757997	1.553338	-9.725914	0.000000	0.000000	23.532944	0.522417	0.430106	16.691841	-15.678660	79.906097	55.596858	2.020470	-6.868319	-3.073858	11.409077	-14.611283	56.309632	51.491815	71.533443	7.184796	0.071703
4.169492	1.173201	-1.467018	90.621536	0.282478	0.969717	0.476251	3.638611	2.321358	12.262919	1.915900	0.033439	28.699247	-14.738320	0.000000	6.365784	-3.064362	6.692600	4.065807	0.070962	35.660614	5.178920	0.000000	0.240342	0.132181	-1.748486	0.446339	0.175801	-1.857766	0.394858	0.321386	-1.857766	0.274687	0.321386	-1.529925	0.223182	0.269544	-1.420645	0.137331	0.204749	-1.311364	1.716740	1.495262	-9.724552	0.000000	0.000000	22.921942	0.017113	0.274496	16.862608	-15.589031	79.801733	55.463947	1.910074	-6.746952	-2.865052	11.380809	-14.563649	56.001172	51.479440	71.379620	7.126119	0.020489
4.186441	1.171282	-1.569828	90.713946	0.282202	0.969756	0.477095	3.759860	2.295874	12.329078	1.852226	0.032327	28.527002	-14.938115	0.000000	6.695773	-3.056803	5.879688	4.406730	0.076912	35.904194	6.239769	0.000000	0.236605	0.126176	-1.750442	0.439400	0.167814	-1.859844	0.388719	0.306785	-1.859844	0.270416	0.306785	-1.531636	0.219712	0.257298	-1.422234	0.135196	0.195447	-1.312831	1.690049	1.427329	-9.735431	0.000000	0.000000	22.303354	-0.466617	0.191765	16.973316	-15.479033	79.578601	55.358754	1.799151	-6.748530	-2.623072	11.369516	-14.546165	55.717750	51.459644	71.366866	7.090722	-0.104059
4.203390	1.159904	-1.663384	90.815066	0.281960	0.969786	0.477944	3.863788	2.261181	12.295414	1.780482	0.031075	28.395951	-14.999263	0.000000	7.004442	-3.044611	5.177283	4.725230	0.082471	36.117588	7.188564	0.000000	0.230440	0.117708	-1.753932	0.427950	0.156551	-1.863552	0.378590	0.286195	-1.863552	0.263370	0.286195	-1.534690	0.213987	0.240030	-1.425069	0.131674	0.182329	-1.315449	1.646011	1.331534	-9.754842	0.000000	0.000000	21.682410	-0.906995	0.139546	16.986553	-15.343367	79.115883	55.266346	1.706714	-6.780574	-2.191696	11.430342	-14.584834	55.588270	51.476443	71.134097	7.056541	-0.125373
4.220339	1.150937	-1.763629	90.899797	0.281742	0.969777	0.478801	3.989402	2.228661	12.073623	1.744213	0.030442	28.358255	-14.777154	0.000000	7.310507	-3.039649	4.574107	5.029941	0.087789	36.310539	7.990405	0.000000	0.224206	0.109760	-1.752670	0.416372	0.145981	-1.862211	0.368347	0.266870	-1.862211	0.256245	0.266870	-1.533586	0.208197	0.223823	-1.424044	0.128111	0.170018	-1.314502	1.601478	1.241627	-9.747822	0.000000	0.000000	21.062373	-1.295385	0.144902	16.937615	-15.222530	78.537705	55.220690	1.628906	-6.881802	-1.776995	11.571122	-14.636215	55.623739	51.458732	70.948639	6.986384	-0.254555
4.237288	1.139405	-1.864236	90.947928	0.281568	0.969735	0.479608	4.114268	2.199081	11.951287	1.712921	0.029896	28.304132	-14.650447	0.000000	7.580796	-3.031659	4.235102	5.272897	0.092029	36.439769	8.416874	0.000000	0.218366	0.101960	-1.743260	0.405528	0.135606	-1.852214	0.358754	0.247905	-1.852214	0.249571	0.247905	-1.525353	0.202775	0.207916	-1.416399	0.124774	0.157935	-1.307445	1.559768	1.153388	-9.695490	0.000000	0.000000	20.436027	-1.610012	0.208571	16.830383	-15.118951	77.864702	55.201902	1.569406	-6.961980	-1.355540	11.789319	-14.701012	55.840161	51.421405	70.694054	6.872300	-0.392675
4.254237	1.123475	-1.963274	90.946164	0.281447	0.969659	0.480356	4.250191	2.172423	11.881691	1.712759	0.029893	28.267269	-14.549864	0.000000	7.815984	-3.021856	3.972339	5.460188	0.095298	36.559021	8.708860	0.000000	0.212907	0.094375	-1.725809	0.395389	0.125519	-1.833672	0.349785	0.229464	-1.833672	0.243331	0.229464	-1.510083	0.197705	0.192450	-1.402220	0.121655	0.146187	-1.294357	1.520773	1.067590	-9.598431	0.000000	0.000000	19.805452	-1.867202	0.328880	16.709632	-15.035205	77.190585	55.207391	1.510947	-7.009033	-0.956464	12.051759	-14.769846	56.155259	51.363360	70.488055	6.719537	-0.537772
4.271186	1.100110	-2.055925	90.904194	0.281367	0.969559	0.481005	4.387797	2.148622	11.967311	1.738212	0.030338	28.210425	-14.626586	0.000000	7.997024	-3.000146	3.965885	5.559888	0.097038	36.614368	8.648137	0.000000	0.208174	0.086747	-1.703367	0.386600	0.115374	-1.809827	0.342009	0.210918	-1.809827	0.237922	0.210918	-1.490446	0.193310	0.176895	-1.383986	0.118951	0.134372	-1.277525	1.486967	0.981303	-9.473616	0.000000	0.000000	19.157451	-2.073436	0.538564	16.573615	-14.968665	76.519740	55.234565	1.463855	-7.025366	-0.577032	12.332237	-14.841726	56.537087	51.297492	70.304742	6.496490	-0.647011
4.288136	1.066547	-2.145171	90.812603	0.281351	0.969435	0.481593	4.568529	2.118281	11.814444	1.860643	0.032474	28.302932	-14.324185	0.000000	8.141084	-2.970249	4.027137	5.597633	0.097697	36.654818	8.482360	0.000000	0.204554	0.078287	-1.669757	0.379876	0.104122	-1.774117	0.336061	0.190347	-1.774117	0.233784	0.190347	-1.461038	0.189948	0.159643	-1.356678	0.116882	0.121267	-1.252318	1.461106	0.885600	-9.286690	0.000000	0.000000	18.481895	-2.283350	0.779447	16.415331	-14.920114	75.835718	55.295236	1.418746	-7.108294	-0.221986	12.677254	-14.922171	57.118887	51.202544	70.082022	6.136231	-0.828865
4.305085	1.014822	-2.220425	90.672249	0.281422	0.969294	0.482081	4.747760	2.087294	11.938717	2.011134	0.035101	28.353810	-14.344418	0.000000	8.226723	-2.921315	4.308458	5.557034	0.096989	36.630803	8.011853	0.000000	0.200833	0.068193	-1.634856	0.372967	0.090697	-1.737035	0.329948	0.165805	-1.737035	0.229532	0.165805	-1.430499	0.186493	0.139060	-1.328321	0.114756	0.105631	-1.226142	1.434530	0.771416	-9.092580	0.000000	0.000000	17.778759	-2.471423	1.168958	16.259499	-14.860620	75.194030	55.368872	1.388352	-7.259284	0.124414	12.939460	-15.001655	57.535525	51.125944	70.097018	5.791394	-0.915733
4.322034	0.948229	-2.287253	90.508507	0.281570	0.969132	0.482501	4.953728	2.044359	11.918490	2.233713	0.038986	28.510106	-14.141771	0.000000	8.277170	-2.860098	4.656348	5.462537	0.095339	36.575291	7.470711	0.000000	0.198061	0.055722	-1.598166	0.367819	0.074110	-1.698052	0.325395	0.135482	-1.698052	0.226364	0.135482	-1.398395	0.183920	0.113628	-1.298510	0.113172	0.086313	-1.198625	1.414731	0.630338	-8.888521	0.000000	0.000000	17.014423	-2.637779	1.659088	16.074026	-14.781704	74.516774	55.440659	1.371571	-7.489608	0.537108	13.186190	-15.103820	57.995777	51.064901	70.113437	5.388364	-0.998262
